<mxfile host="app.diagrams.net" modified="2022-01-13T02:41:40.799Z" agent="5.0 (Windows NT 10.0; Win64; x64) AppleWebKit/537.36 (KHTML, like Gecko) Chrome/97.0.4692.71 Safari/537.36" etag="CIe2S-GlYvbwT7CZqb_v" version="16.2.4" type="github">
  <diagram id="KWUQa78Vd3lR5urpS75q" name="第 1 页">
    <mxGraphModel dx="1483" dy="2060" grid="1" gridSize="10" guides="1" tooltips="1" connect="1" arrows="1" fold="1" page="1" pageScale="1" pageWidth="827" pageHeight="1169" math="0" shadow="0">
      <root>
        <mxCell id="0" />
        <mxCell id="1" parent="0" />
        <mxCell id="0QqFH8Gw2swg9hfUQbTv-2" value="virtio_net_init" style="rounded=0;whiteSpace=wrap;html=1;" parent="1" vertex="1">
          <mxGeometry x="70" y="40" width="100" height="30" as="geometry" />
        </mxCell>
        <mxCell id="0QqFH8Gw2swg9hfUQbTv-3" value="virtio_linkup(&amp;amp;net-&amp;gt;base, &amp;amp;virtio_net_ops, net, dev, net-&amp;gt;queues,net-&amp;gt;use_vhost ? BACKEND_VHOST : BACKEND_VBSU)" style="whiteSpace=wrap;html=1;" parent="1" vertex="1">
          <mxGeometry x="140" y="242.5" width="400" height="30" as="geometry" />
        </mxCell>
        <mxCell id="0QqFH8Gw2swg9hfUQbTv-6" value="" style="edgeStyle=elbowEdgeStyle;elbow=horizontal;endArrow=classic;html=1;rounded=0;entryX=0;entryY=0.5;entryDx=0;entryDy=0;exitX=0.25;exitY=1;exitDx=0;exitDy=0;" parent="1" source="0QqFH8Gw2swg9hfUQbTv-2" target="0QqFH8Gw2swg9hfUQbTv-3" edge="1">
          <mxGeometry width="50" height="50" relative="1" as="geometry">
            <mxPoint x="50" y="150" as="sourcePoint" />
            <mxPoint x="100" y="100" as="targetPoint" />
            <Array as="points">
              <mxPoint x="95" y="90" />
            </Array>
          </mxGeometry>
        </mxCell>
        <mxCell id="0QqFH8Gw2swg9hfUQbTv-7" value="&lt;div&gt;static struct virtio_ops virtio_net_ops = {&lt;/div&gt;&lt;div&gt;&amp;nbsp; &amp;nbsp; &amp;nbsp; &amp;nbsp; &quot;vtnet&quot;,&amp;nbsp; &amp;nbsp; &amp;nbsp; &amp;nbsp; &amp;nbsp; &amp;nbsp; &amp;nbsp; &amp;nbsp; &amp;nbsp; &amp;nbsp; &amp;nbsp; &amp;nbsp; /* our name */&lt;/div&gt;&lt;div&gt;&amp;nbsp; &amp;nbsp; &amp;nbsp; &amp;nbsp; VIRTIO_NET_MAXQ - 1,&amp;nbsp; &amp;nbsp; &amp;nbsp; &amp;nbsp; &amp;nbsp; &amp;nbsp; /* we currently support 2 virtqueues */&lt;/div&gt;&lt;div&gt;&amp;nbsp; &amp;nbsp; &amp;nbsp; &amp;nbsp; sizeof(struct virtio_net_config), /* config reg size */&lt;/div&gt;&lt;div&gt;&amp;nbsp; &amp;nbsp; &amp;nbsp; &amp;nbsp; virtio_net_reset,&amp;nbsp; &amp;nbsp; &amp;nbsp; &amp;nbsp; &amp;nbsp; &amp;nbsp; &amp;nbsp; &amp;nbsp;/* reset */&lt;/div&gt;&lt;div&gt;&amp;nbsp; &amp;nbsp; &amp;nbsp; &amp;nbsp; NULL,&amp;nbsp; &amp;nbsp; &amp;nbsp; &amp;nbsp; &amp;nbsp; &amp;nbsp; &amp;nbsp; &amp;nbsp; &amp;nbsp; &amp;nbsp; &amp;nbsp; &amp;nbsp; &amp;nbsp; &amp;nbsp;/* device-wide qnotify -- not used */&lt;/div&gt;&lt;div&gt;&amp;nbsp; &amp;nbsp; &amp;nbsp; &amp;nbsp; virtio_net_cfgread,&amp;nbsp; &amp;nbsp; &amp;nbsp; &amp;nbsp; &amp;nbsp; &amp;nbsp; &amp;nbsp;/* read PCI config */&lt;/div&gt;&lt;div&gt;&amp;nbsp; &amp;nbsp; &amp;nbsp; &amp;nbsp; virtio_net_cfgwrite,&amp;nbsp; &amp;nbsp; &amp;nbsp; &amp;nbsp; &amp;nbsp; &amp;nbsp; /* write PCI config */&lt;/div&gt;&lt;div&gt;&amp;nbsp; &amp;nbsp; &amp;nbsp; &amp;nbsp; virtio_net_neg_features,&amp;nbsp; &amp;nbsp; &amp;nbsp; &amp;nbsp; /* apply negotiated features */&lt;/div&gt;&lt;div&gt;&amp;nbsp; &amp;nbsp; &amp;nbsp; &amp;nbsp; virtio_net_set_status,&amp;nbsp; &amp;nbsp; &amp;nbsp; &amp;nbsp; &amp;nbsp; /* called on guest set status */&lt;/div&gt;&lt;div&gt;};&lt;/div&gt;" style="text;html=1;align=left;verticalAlign=middle;resizable=0;points=[];autosize=1;strokeColor=none;fillColor=none;" parent="1" vertex="1">
          <mxGeometry x="540" y="70" width="410" height="160" as="geometry" />
        </mxCell>
        <mxCell id="0QqFH8Gw2swg9hfUQbTv-8" value="" style="shape=curlyBracket;whiteSpace=wrap;html=1;rounded=1;size=0.5;" parent="1" vertex="1">
          <mxGeometry x="490" y="82.5" width="30" height="135" as="geometry" />
        </mxCell>
        <mxCell id="0QqFH8Gw2swg9hfUQbTv-9" value="&lt;div&gt;struct virtio_net {&lt;/div&gt;&lt;div&gt;&amp;nbsp; &amp;nbsp; &amp;nbsp; &amp;nbsp; struct virtio_base base;&lt;/div&gt;&lt;div&gt;&amp;nbsp; &amp;nbsp; &amp;nbsp; &amp;nbsp; struct virtio_vq_info queues[VIRTIO_NET_MAXQ - 1];&lt;/div&gt;&lt;div&gt;&amp;nbsp; &amp;nbsp; &amp;nbsp; &amp;nbsp; pthread_mutex_t mtx;&lt;/div&gt;&lt;div&gt;&amp;nbsp; &amp;nbsp; &amp;nbsp; &amp;nbsp; struct mevent&amp;nbsp; &amp;nbsp;*mevp;&lt;/div&gt;&lt;div&gt;&lt;br&gt;&lt;/div&gt;&lt;div&gt;&amp;nbsp; &amp;nbsp; &amp;nbsp; &amp;nbsp; int&amp;nbsp; &amp;nbsp; &amp;nbsp; &amp;nbsp; &amp;nbsp; &amp;nbsp; &amp;nbsp;tapfd;&lt;/div&gt;&lt;div&gt;&lt;br&gt;&lt;/div&gt;&lt;div&gt;&amp;nbsp; &amp;nbsp; &amp;nbsp; &amp;nbsp; int&amp;nbsp; &amp;nbsp; &amp;nbsp; &amp;nbsp; &amp;nbsp; &amp;nbsp; &amp;nbsp;rx_ready;&lt;/div&gt;&lt;div&gt;&lt;br&gt;&lt;/div&gt;&lt;div&gt;&amp;nbsp; &amp;nbsp; &amp;nbsp; &amp;nbsp; volatile int&amp;nbsp; &amp;nbsp; resetting;&amp;nbsp; &amp;nbsp; &amp;nbsp; /* set and checked outside lock */&lt;/div&gt;&lt;div&gt;&amp;nbsp; &amp;nbsp; &amp;nbsp; &amp;nbsp; volatile int&amp;nbsp; &amp;nbsp; closing;&amp;nbsp; &amp;nbsp; &amp;nbsp; &amp;nbsp; /* stop the tx i/o thread */&lt;/div&gt;&lt;div&gt;&lt;br&gt;&lt;/div&gt;&lt;div&gt;&amp;nbsp; &amp;nbsp; &amp;nbsp; &amp;nbsp; uint64_t&amp;nbsp; &amp;nbsp; &amp;nbsp; &amp;nbsp; features;&amp;nbsp; &amp;nbsp; &amp;nbsp; &amp;nbsp;/* negotiated features */&lt;/div&gt;&lt;div&gt;&lt;br&gt;&lt;/div&gt;&lt;div&gt;&amp;nbsp; &amp;nbsp; &amp;nbsp; &amp;nbsp; struct virtio_net_config config;&lt;/div&gt;&lt;div&gt;&lt;br&gt;&lt;/div&gt;&lt;div&gt;&amp;nbsp; &amp;nbsp; &amp;nbsp; &amp;nbsp; pthread_mutex_t rx_mtx;&lt;/div&gt;&lt;div&gt;&amp;nbsp; &amp;nbsp; &amp;nbsp; &amp;nbsp; int&amp;nbsp; &amp;nbsp; &amp;nbsp; &amp;nbsp; &amp;nbsp; &amp;nbsp; &amp;nbsp;rx_in_progress;&lt;/div&gt;&lt;div&gt;&amp;nbsp; &amp;nbsp; &amp;nbsp; &amp;nbsp; int&amp;nbsp; &amp;nbsp; &amp;nbsp; &amp;nbsp; &amp;nbsp; &amp;nbsp; &amp;nbsp;rx_vhdrlen;&lt;/div&gt;&lt;div&gt;&amp;nbsp; &amp;nbsp; &amp;nbsp; &amp;nbsp; int&amp;nbsp; &amp;nbsp; &amp;nbsp; &amp;nbsp; &amp;nbsp; &amp;nbsp; &amp;nbsp;rx_merge;&amp;nbsp; &amp;nbsp; &amp;nbsp; &amp;nbsp;/* merged rx bufs in use */&lt;/div&gt;&lt;div&gt;&amp;nbsp; &amp;nbsp; &amp;nbsp; &amp;nbsp; pthread_t&amp;nbsp; &amp;nbsp; &amp;nbsp; &amp;nbsp;tx_tid;&lt;/div&gt;&lt;div&gt;&amp;nbsp; &amp;nbsp; &amp;nbsp; &amp;nbsp; pthread_mutex_t tx_mtx;&lt;/div&gt;&lt;div&gt;&amp;nbsp; &amp;nbsp; &amp;nbsp; &amp;nbsp; pthread_cond_t&amp;nbsp; tx_cond;&lt;/div&gt;&lt;div&gt;&amp;nbsp; &amp;nbsp; &amp;nbsp; &amp;nbsp; int&amp;nbsp; &amp;nbsp; &amp;nbsp; &amp;nbsp; &amp;nbsp; &amp;nbsp; &amp;nbsp;tx_in_progress;&lt;/div&gt;&lt;div&gt;&lt;br&gt;&lt;/div&gt;&lt;div&gt;&amp;nbsp; &amp;nbsp; &amp;nbsp; &amp;nbsp; void (*virtio_net_rx)(struct virtio_net *net);&lt;/div&gt;&lt;div&gt;&amp;nbsp; &amp;nbsp; &amp;nbsp; &amp;nbsp; void (*virtio_net_tx)(struct virtio_net *net, struct iovec *iov,&lt;/div&gt;&lt;div&gt;&amp;nbsp; &amp;nbsp; &amp;nbsp; &amp;nbsp; &amp;nbsp; &amp;nbsp; &amp;nbsp; &amp;nbsp; &amp;nbsp; &amp;nbsp; &amp;nbsp; &amp;nbsp; &amp;nbsp; &amp;nbsp; &amp;nbsp;int iovcnt, int len);&lt;/div&gt;&lt;div&gt;&lt;br&gt;&lt;/div&gt;&lt;div&gt;&amp;nbsp; &amp;nbsp; &amp;nbsp; &amp;nbsp; struct vhost_net *vhost_net;&lt;/div&gt;&lt;div&gt;&amp;nbsp; &amp;nbsp; &amp;nbsp; &amp;nbsp; bool&amp;nbsp; &amp;nbsp; &amp;nbsp; &amp;nbsp; &amp;nbsp; &amp;nbsp; use_vhost;&lt;/div&gt;&lt;div&gt;};&lt;/div&gt;&lt;div&gt;&lt;br&gt;&lt;/div&gt;" style="text;html=1;align=left;verticalAlign=middle;resizable=0;points=[];autosize=1;strokeColor=none;fillColor=none;" parent="1" vertex="1">
          <mxGeometry x="250" y="-415" width="350" height="480" as="geometry" />
        </mxCell>
        <mxCell id="0QqFH8Gw2swg9hfUQbTv-10" value="" style="shape=curlyBracket;whiteSpace=wrap;html=1;rounded=1;" parent="1" vertex="1">
          <mxGeometry x="200" y="-400" width="20" height="450" as="geometry" />
        </mxCell>
        <mxCell id="0QqFH8Gw2swg9hfUQbTv-11" value="net = calloc(1, sizeof(struct virtio_net))" style="whiteSpace=wrap;html=1;" parent="1" vertex="1">
          <mxGeometry x="140" y="110" width="230" height="30" as="geometry" />
        </mxCell>
        <mxCell id="0QqFH8Gw2swg9hfUQbTv-12" value="" style="endArrow=classic;html=1;rounded=0;entryX=0;entryY=0.5;entryDx=0;entryDy=0;exitX=0.25;exitY=1;exitDx=0;exitDy=0;" parent="1" source="0QqFH8Gw2swg9hfUQbTv-2" target="0QqFH8Gw2swg9hfUQbTv-11" edge="1">
          <mxGeometry width="50" height="50" relative="1" as="geometry">
            <mxPoint x="100" y="125" as="sourcePoint" />
            <mxPoint x="490" y="130" as="targetPoint" />
            <Array as="points">
              <mxPoint x="95" y="125" />
            </Array>
          </mxGeometry>
        </mxCell>
        <mxCell id="0QqFH8Gw2swg9hfUQbTv-13" value="do pthread relative operation" style="whiteSpace=wrap;html=1;" parent="1" vertex="1">
          <mxGeometry x="140" y="170" width="230" height="30" as="geometry" />
        </mxCell>
        <mxCell id="0QqFH8Gw2swg9hfUQbTv-14" value="" style="endArrow=classic;html=1;rounded=0;entryX=0;entryY=0.5;entryDx=0;entryDy=0;exitX=0.25;exitY=1;exitDx=0;exitDy=0;" parent="1" source="0QqFH8Gw2swg9hfUQbTv-2" target="0QqFH8Gw2swg9hfUQbTv-13" edge="1">
          <mxGeometry width="50" height="50" relative="1" as="geometry">
            <mxPoint x="180" y="260" as="sourcePoint" />
            <mxPoint x="230" y="210" as="targetPoint" />
            <Array as="points">
              <mxPoint x="95" y="185" />
            </Array>
          </mxGeometry>
        </mxCell>
        <mxCell id="0QqFH8Gw2swg9hfUQbTv-15" value="&lt;div&gt;&amp;nbsp; &amp;nbsp; &amp;nbsp; &amp;nbsp; net-&amp;gt;queues[VIRTIO_NET_RXQ].qsize = VIRTIO_NET_RINGSZ;&lt;/div&gt;&lt;div&gt;&amp;nbsp; &amp;nbsp; &amp;nbsp; &amp;nbsp; net-&amp;gt;queues[VIRTIO_NET_RXQ].notify = virtio_net_ping_rxq;&lt;/div&gt;&lt;div&gt;&amp;nbsp; &amp;nbsp; &amp;nbsp; &amp;nbsp; net-&amp;gt;queues[VIRTIO_NET_TXQ].qsize = VIRTIO_NET_RINGSZ;&lt;/div&gt;&lt;div&gt;&amp;nbsp; &amp;nbsp; &amp;nbsp; &amp;nbsp; net-&amp;gt;queues[VIRTIO_NET_TXQ].notify = virtio_net_ping_txq;&lt;/div&gt;&lt;div&gt;#ifdef notyet&lt;/div&gt;&lt;div&gt;&amp;nbsp; &amp;nbsp; &amp;nbsp; &amp;nbsp; net-&amp;gt;queues[VIRTIO_NET_CTLQ].qsize = VIRTIO_NET_RINGSZ;&lt;/div&gt;&lt;div&gt;&amp;nbsp; &amp;nbsp; &amp;nbsp; &amp;nbsp; net-&amp;gt;queues[VIRTIO_NET_CTLQ].notify = virtio_net_ping_ctlq;&lt;/div&gt;&lt;div&gt;#endif&lt;/div&gt;" style="whiteSpace=wrap;html=1;align=left;" parent="1" vertex="1">
          <mxGeometry x="140" y="290" width="410" height="130" as="geometry" />
        </mxCell>
        <mxCell id="0QqFH8Gw2swg9hfUQbTv-16" value="" style="endArrow=classic;html=1;rounded=0;entryX=0;entryY=0.5;entryDx=0;entryDy=0;exitX=0.25;exitY=1;exitDx=0;exitDy=0;" parent="1" source="0QqFH8Gw2swg9hfUQbTv-2" target="0QqFH8Gw2swg9hfUQbTv-15" edge="1">
          <mxGeometry width="50" height="50" relative="1" as="geometry">
            <mxPoint x="120" y="100" as="sourcePoint" />
            <mxPoint x="110" y="330" as="targetPoint" />
            <Array as="points">
              <mxPoint x="95" y="355" />
            </Array>
          </mxGeometry>
        </mxCell>
        <mxCell id="0QqFH8Gw2swg9hfUQbTv-17" value="virtio_net_tap_setup(net, devname)" style="whiteSpace=wrap;html=1;" parent="1" vertex="1">
          <mxGeometry x="140" y="450" width="220" height="30" as="geometry" />
        </mxCell>
        <mxCell id="0QqFH8Gw2swg9hfUQbTv-18" value="" style="endArrow=classic;html=1;rounded=0;entryX=0;entryY=0.5;entryDx=0;entryDy=0;exitX=0.25;exitY=1;exitDx=0;exitDy=0;" parent="1" source="0QqFH8Gw2swg9hfUQbTv-2" target="0QqFH8Gw2swg9hfUQbTv-17" edge="1">
          <mxGeometry width="50" height="50" relative="1" as="geometry">
            <mxPoint x="120" y="80" as="sourcePoint" />
            <mxPoint x="70" y="390" as="targetPoint" />
            <Array as="points">
              <mxPoint x="95" y="465" />
            </Array>
          </mxGeometry>
        </mxCell>
        <mxCell id="0QqFH8Gw2swg9hfUQbTv-19" value="net-&amp;gt;virtio_net_rx = virtio_net_tap_rx;&lt;br&gt;net-&amp;gt;virtio_net_tx = virtio_net_tap_tx;" style="whiteSpace=wrap;html=1;" parent="1" vertex="1">
          <mxGeometry x="250" y="510" width="230" height="40" as="geometry" />
        </mxCell>
        <mxCell id="0QqFH8Gw2swg9hfUQbTv-20" value="" style="endArrow=classic;html=1;rounded=0;entryX=0;entryY=0.5;entryDx=0;entryDy=0;exitX=0.25;exitY=1;exitDx=0;exitDy=0;" parent="1" source="0QqFH8Gw2swg9hfUQbTv-17" target="0QqFH8Gw2swg9hfUQbTv-19" edge="1">
          <mxGeometry width="50" height="50" relative="1" as="geometry">
            <mxPoint x="110" y="550" as="sourcePoint" />
            <mxPoint x="160" y="500" as="targetPoint" />
            <Array as="points">
              <mxPoint x="195" y="530" />
            </Array>
          </mxGeometry>
        </mxCell>
        <mxCell id="0QqFH8Gw2swg9hfUQbTv-21" value="net-&amp;gt;tapfd = virtio_net_tap_open(tbuf)" style="whiteSpace=wrap;html=1;" parent="1" vertex="1">
          <mxGeometry x="250" y="570" width="230" height="30" as="geometry" />
        </mxCell>
        <mxCell id="0QqFH8Gw2swg9hfUQbTv-23" value="" style="endArrow=classic;html=1;rounded=0;entryX=0;entryY=0.5;entryDx=0;entryDy=0;exitX=0.25;exitY=1;exitDx=0;exitDy=0;" parent="1" source="0QqFH8Gw2swg9hfUQbTv-17" target="0QqFH8Gw2swg9hfUQbTv-21" edge="1">
          <mxGeometry width="50" height="50" relative="1" as="geometry">
            <mxPoint x="200" y="550" as="sourcePoint" />
            <mxPoint x="250" y="500" as="targetPoint" />
            <Array as="points">
              <mxPoint x="195" y="585" />
            </Array>
          </mxGeometry>
        </mxCell>
        <mxCell id="0QqFH8Gw2swg9hfUQbTv-24" value="tunfd = open(tbuf, O_RDWR);" style="whiteSpace=wrap;html=1;" parent="1" vertex="1">
          <mxGeometry x="340" y="620" width="180" height="30" as="geometry" />
        </mxCell>
        <mxCell id="0QqFH8Gw2swg9hfUQbTv-25" value="ioctl(tunfd, TUNSETIFF, (void *)&amp;amp;ifr);" style="whiteSpace=wrap;html=1;fillColor=#ffe6cc;strokeColor=#d79b00;" parent="1" vertex="1">
          <mxGeometry x="340" y="670" width="210" height="30" as="geometry" />
        </mxCell>
        <mxCell id="0QqFH8Gw2swg9hfUQbTv-26" value="" style="endArrow=classic;html=1;rounded=0;entryX=0;entryY=0.5;entryDx=0;entryDy=0;exitX=0.25;exitY=1;exitDx=0;exitDy=0;" parent="1" source="0QqFH8Gw2swg9hfUQbTv-21" target="0QqFH8Gw2swg9hfUQbTv-24" edge="1">
          <mxGeometry width="50" height="50" relative="1" as="geometry">
            <mxPoint x="225" y="690" as="sourcePoint" />
            <mxPoint x="275" y="640" as="targetPoint" />
            <Array as="points">
              <mxPoint x="308" y="635" />
            </Array>
          </mxGeometry>
        </mxCell>
        <mxCell id="0QqFH8Gw2swg9hfUQbTv-27" value="" style="endArrow=classic;html=1;rounded=0;entryX=0;entryY=0.5;entryDx=0;entryDy=0;exitX=0.25;exitY=1;exitDx=0;exitDy=0;" parent="1" source="0QqFH8Gw2swg9hfUQbTv-21" target="0QqFH8Gw2swg9hfUQbTv-25" edge="1">
          <mxGeometry width="50" height="50" relative="1" as="geometry">
            <mxPoint x="450" y="600" as="sourcePoint" />
            <mxPoint x="500" y="550" as="targetPoint" />
            <Array as="points">
              <mxPoint x="308" y="685" />
            </Array>
          </mxGeometry>
        </mxCell>
        <mxCell id="0QqFH8Gw2swg9hfUQbTv-28" value="ioctl(net-&amp;gt;tapfd, FIONBIO, &amp;amp;opt)" style="whiteSpace=wrap;html=1;fillColor=#ffe6cc;strokeColor=#d79b00;" parent="1" vertex="1">
          <mxGeometry x="250" y="730" width="210" height="40" as="geometry" />
        </mxCell>
        <mxCell id="0QqFH8Gw2swg9hfUQbTv-29" value="" style="endArrow=classic;html=1;rounded=0;entryX=0;entryY=0.5;entryDx=0;entryDy=0;exitX=0.25;exitY=1;exitDx=0;exitDy=0;" parent="1" source="0QqFH8Gw2swg9hfUQbTv-17" target="0QqFH8Gw2swg9hfUQbTv-28" edge="1">
          <mxGeometry width="50" height="50" relative="1" as="geometry">
            <mxPoint x="150" y="780" as="sourcePoint" />
            <mxPoint x="200" y="730" as="targetPoint" />
            <Array as="points">
              <mxPoint x="195" y="750" />
            </Array>
          </mxGeometry>
        </mxCell>
        <mxCell id="0QqFH8Gw2swg9hfUQbTv-30" value="virtio_interrupt_init(&amp;amp;net-&amp;gt;base, virtio_uses_msix())" style="whiteSpace=wrap;html=1;" parent="1" vertex="1">
          <mxGeometry x="140" y="810" width="290" height="30" as="geometry" />
        </mxCell>
        <mxCell id="0QqFH8Gw2swg9hfUQbTv-31" value="" style="endArrow=classic;html=1;rounded=0;entryX=0;entryY=0.5;entryDx=0;entryDy=0;exitX=0.25;exitY=1;exitDx=0;exitDy=0;" parent="1" source="0QqFH8Gw2swg9hfUQbTv-2" target="0QqFH8Gw2swg9hfUQbTv-30" edge="1">
          <mxGeometry width="50" height="50" relative="1" as="geometry">
            <mxPoint x="50" y="840" as="sourcePoint" />
            <mxPoint x="100" y="790" as="targetPoint" />
            <Array as="points">
              <mxPoint x="95" y="825" />
            </Array>
          </mxGeometry>
        </mxCell>
        <mxCell id="0QqFH8Gw2swg9hfUQbTv-32" value="pthread_create(&amp;amp;net-&amp;gt;tx_tid, NULL, virtio_net_tx_thread,(void *)net);" style="whiteSpace=wrap;html=1;" parent="1" vertex="1">
          <mxGeometry x="140" y="890" width="390" height="30" as="geometry" />
        </mxCell>
        <mxCell id="0QqFH8Gw2swg9hfUQbTv-33" value="" style="endArrow=classic;html=1;rounded=0;entryX=0;entryY=0.5;entryDx=0;entryDy=0;exitX=0.25;exitY=1;exitDx=0;exitDy=0;" parent="1" source="0QqFH8Gw2swg9hfUQbTv-2" target="0QqFH8Gw2swg9hfUQbTv-32" edge="1">
          <mxGeometry width="50" height="50" relative="1" as="geometry">
            <mxPoint x="60" y="960" as="sourcePoint" />
            <mxPoint x="110" y="910" as="targetPoint" />
            <Array as="points">
              <mxPoint x="95" y="905" />
            </Array>
          </mxGeometry>
        </mxCell>
        <mxCell id="46-HXXY4aSdP1pMZ3lFQ-1" value="virtnet_probe" style="whiteSpace=wrap;html=1;" parent="1" vertex="1">
          <mxGeometry x="1120" y="230" width="110" height="30" as="geometry" />
        </mxCell>
        <mxCell id="46-HXXY4aSdP1pMZ3lFQ-2" value="virtio_net_driver_init" style="whiteSpace=wrap;html=1;" parent="1" vertex="1">
          <mxGeometry x="1040" y="40" width="130" height="30" as="geometry" />
        </mxCell>
        <mxCell id="46-HXXY4aSdP1pMZ3lFQ-3" value="register_virtio_driver(&amp;amp;virtio_net_driver)" style="whiteSpace=wrap;html=1;" parent="1" vertex="1">
          <mxGeometry x="1120" y="90" width="230" height="40" as="geometry" />
        </mxCell>
        <mxCell id="46-HXXY4aSdP1pMZ3lFQ-4" value="" style="endArrow=classic;html=1;rounded=0;entryX=0;entryY=0.5;entryDx=0;entryDy=0;exitX=0.25;exitY=1;exitDx=0;exitDy=0;" parent="1" source="46-HXXY4aSdP1pMZ3lFQ-2" target="46-HXXY4aSdP1pMZ3lFQ-3" edge="1">
          <mxGeometry width="50" height="50" relative="1" as="geometry">
            <mxPoint x="1020" y="230" as="sourcePoint" />
            <mxPoint x="1070" y="180" as="targetPoint" />
            <Array as="points">
              <mxPoint x="1073" y="110" />
            </Array>
          </mxGeometry>
        </mxCell>
        <mxCell id="46-HXXY4aSdP1pMZ3lFQ-5" value="将virtio net driver注册到virtio bus上，bus匹配上会调用设备自身的probe函数" style="text;html=1;align=center;verticalAlign=middle;resizable=0;points=[];autosize=1;strokeColor=none;fillColor=none;" parent="1" vertex="1">
          <mxGeometry x="1120" y="140" width="420" height="20" as="geometry" />
        </mxCell>
        <mxCell id="46-HXXY4aSdP1pMZ3lFQ-6" value="virtio_has_feature(...)&lt;br&gt;..." style="whiteSpace=wrap;html=1;" parent="1" vertex="1">
          <mxGeometry x="1200" y="280" width="150" height="40" as="geometry" />
        </mxCell>
        <mxCell id="46-HXXY4aSdP1pMZ3lFQ-7" value="检查各种feature并进行配置" style="text;html=1;align=center;verticalAlign=middle;resizable=0;points=[];autosize=1;strokeColor=none;fillColor=none;" parent="1" vertex="1">
          <mxGeometry x="1370" y="290" width="160" height="20" as="geometry" />
        </mxCell>
        <mxCell id="46-HXXY4aSdP1pMZ3lFQ-8" value="virtio_dev_probe" style="whiteSpace=wrap;html=1;" parent="1" vertex="1">
          <mxGeometry x="1040" y="170" width="110" height="30" as="geometry" />
        </mxCell>
        <mxCell id="46-HXXY4aSdP1pMZ3lFQ-11" value="" style="endArrow=classic;html=1;rounded=0;entryX=0;entryY=0.5;entryDx=0;entryDy=0;exitX=0.25;exitY=1;exitDx=0;exitDy=0;" parent="1" source="46-HXXY4aSdP1pMZ3lFQ-8" target="46-HXXY4aSdP1pMZ3lFQ-1" edge="1">
          <mxGeometry width="50" height="50" relative="1" as="geometry">
            <mxPoint x="1030" y="310" as="sourcePoint" />
            <mxPoint x="1080" y="260" as="targetPoint" />
            <Array as="points">
              <mxPoint x="1068" y="245" />
            </Array>
          </mxGeometry>
        </mxCell>
        <mxCell id="46-HXXY4aSdP1pMZ3lFQ-12" value="" style="endArrow=classic;html=1;rounded=0;entryX=0;entryY=0.5;entryDx=0;entryDy=0;exitX=0.25;exitY=1;exitDx=0;exitDy=0;" parent="1" source="46-HXXY4aSdP1pMZ3lFQ-1" target="46-HXXY4aSdP1pMZ3lFQ-6" edge="1">
          <mxGeometry width="50" height="50" relative="1" as="geometry">
            <mxPoint x="1010" y="350" as="sourcePoint" />
            <mxPoint x="1060" y="300" as="targetPoint" />
            <Array as="points">
              <mxPoint x="1148" y="300" />
            </Array>
          </mxGeometry>
        </mxCell>
        <mxCell id="46-HXXY4aSdP1pMZ3lFQ-13" value="init_vqs(vi);" style="whiteSpace=wrap;html=1;" parent="1" vertex="1">
          <mxGeometry x="1200" y="350" width="90" height="40" as="geometry" />
        </mxCell>
        <mxCell id="46-HXXY4aSdP1pMZ3lFQ-14" value="" style="endArrow=classic;html=1;rounded=0;entryX=0;entryY=0.5;entryDx=0;entryDy=0;exitX=0.25;exitY=1;exitDx=0;exitDy=0;" parent="1" source="46-HXXY4aSdP1pMZ3lFQ-1" target="46-HXXY4aSdP1pMZ3lFQ-13" edge="1">
          <mxGeometry width="50" height="50" relative="1" as="geometry">
            <mxPoint x="1040" y="390" as="sourcePoint" />
            <mxPoint x="1090" y="340" as="targetPoint" />
            <Array as="points">
              <mxPoint x="1148" y="370" />
            </Array>
          </mxGeometry>
        </mxCell>
        <mxCell id="46-HXXY4aSdP1pMZ3lFQ-17" value="Allocate/initialize the rx/tx queues, and invoke find_vqs" style="text;html=1;align=center;verticalAlign=middle;resizable=0;points=[];autosize=1;strokeColor=none;fillColor=none;" parent="1" vertex="1">
          <mxGeometry x="1290" y="360" width="310" height="20" as="geometry" />
        </mxCell>
        <mxCell id="46-HXXY4aSdP1pMZ3lFQ-18" value="virtnet_alloc_queues(vi)" style="whiteSpace=wrap;html=1;" parent="1" vertex="1">
          <mxGeometry x="1255" y="415" width="150" height="30" as="geometry" />
        </mxCell>
        <mxCell id="46-HXXY4aSdP1pMZ3lFQ-19" value="" style="endArrow=classic;html=1;rounded=0;entryX=0;entryY=0.5;entryDx=0;entryDy=0;exitX=0.25;exitY=1;exitDx=0;exitDy=0;" parent="1" source="46-HXXY4aSdP1pMZ3lFQ-13" target="46-HXXY4aSdP1pMZ3lFQ-18" edge="1">
          <mxGeometry width="50" height="50" relative="1" as="geometry">
            <mxPoint x="1120" y="510" as="sourcePoint" />
            <mxPoint x="1170" y="460" as="targetPoint" />
            <Array as="points">
              <mxPoint x="1223" y="430" />
            </Array>
          </mxGeometry>
        </mxCell>
        <mxCell id="46-HXXY4aSdP1pMZ3lFQ-20" value="virtnet_find_vqs" style="whiteSpace=wrap;html=1;" parent="1" vertex="1">
          <mxGeometry x="1330" y="470" width="110" height="30" as="geometry" />
        </mxCell>
        <mxCell id="46-HXXY4aSdP1pMZ3lFQ-21" value="" style="endArrow=classic;html=1;rounded=0;entryX=0;entryY=0.5;entryDx=0;entryDy=0;exitX=0.25;exitY=1;exitDx=0;exitDy=0;" parent="1" source="46-HXXY4aSdP1pMZ3lFQ-18" target="46-HXXY4aSdP1pMZ3lFQ-20" edge="1">
          <mxGeometry width="50" height="50" relative="1" as="geometry">
            <mxPoint x="1240" y="530" as="sourcePoint" />
            <mxPoint x="1290" y="480" as="targetPoint" />
            <Array as="points">
              <mxPoint x="1293" y="485" />
            </Array>
          </mxGeometry>
        </mxCell>
        <mxCell id="46-HXXY4aSdP1pMZ3lFQ-22" value="virtio_find_vqs_ctx(vi-&amp;gt;vdev, total_vqs, vqs, callbacks,names, ctx, NULL);" style="whiteSpace=wrap;html=1;" parent="1" vertex="1">
          <mxGeometry x="1405" y="530" width="400" height="40" as="geometry" />
        </mxCell>
        <mxCell id="46-HXXY4aSdP1pMZ3lFQ-23" value="" style="endArrow=classic;html=1;rounded=0;entryX=0;entryY=0.5;entryDx=0;entryDy=0;exitX=0.25;exitY=1;exitDx=0;exitDy=0;" parent="1" source="46-HXXY4aSdP1pMZ3lFQ-20" target="46-HXXY4aSdP1pMZ3lFQ-22" edge="1">
          <mxGeometry width="50" height="50" relative="1" as="geometry">
            <mxPoint x="1260" y="580" as="sourcePoint" />
            <mxPoint x="1310" y="530" as="targetPoint" />
            <Array as="points">
              <mxPoint x="1358" y="550" />
            </Array>
          </mxGeometry>
        </mxCell>
        <mxCell id="46-HXXY4aSdP1pMZ3lFQ-24" value="vdev-&amp;gt;config-&amp;gt;find_vqs&lt;br&gt;（including pci mmio...）" style="whiteSpace=wrap;html=1;" parent="1" vertex="1">
          <mxGeometry x="1554" y="590" width="170" height="40" as="geometry" />
        </mxCell>
        <mxCell id="46-HXXY4aSdP1pMZ3lFQ-25" value="" style="endArrow=classic;html=1;rounded=0;entryX=0;entryY=0.5;entryDx=0;entryDy=0;exitX=0.25;exitY=1;exitDx=0;exitDy=0;" parent="1" source="46-HXXY4aSdP1pMZ3lFQ-22" target="46-HXXY4aSdP1pMZ3lFQ-24" edge="1">
          <mxGeometry width="50" height="50" relative="1" as="geometry">
            <mxPoint x="1370" y="640" as="sourcePoint" />
            <mxPoint x="1420" y="590" as="targetPoint" />
            <Array as="points">
              <mxPoint x="1505" y="610" />
            </Array>
          </mxGeometry>
        </mxCell>
        <mxCell id="46-HXXY4aSdP1pMZ3lFQ-26" value="virtio_device_ready(vdev);" style="whiteSpace=wrap;html=1;" parent="1" vertex="1">
          <mxGeometry x="1200" y="640" width="170" height="40" as="geometry" />
        </mxCell>
        <mxCell id="46-HXXY4aSdP1pMZ3lFQ-27" value="" style="endArrow=classic;html=1;rounded=0;entryX=0;entryY=0.5;entryDx=0;entryDy=0;exitX=0.25;exitY=1;exitDx=0;exitDy=0;" parent="1" source="46-HXXY4aSdP1pMZ3lFQ-1" target="46-HXXY4aSdP1pMZ3lFQ-26" edge="1">
          <mxGeometry width="50" height="50" relative="1" as="geometry">
            <mxPoint x="1090" y="630" as="sourcePoint" />
            <mxPoint x="1140" y="580" as="targetPoint" />
            <Array as="points">
              <mxPoint x="1148" y="660" />
            </Array>
          </mxGeometry>
        </mxCell>
        <mxCell id="46-HXXY4aSdP1pMZ3lFQ-28" value="virtnet_set_queues(vi, vi-&amp;gt;curr_queue_pairs)" style="whiteSpace=wrap;html=1;" parent="1" vertex="1">
          <mxGeometry x="1200" y="710" width="250" height="40" as="geometry" />
        </mxCell>
        <mxCell id="46-HXXY4aSdP1pMZ3lFQ-29" value="" style="endArrow=classic;html=1;rounded=0;entryX=0;entryY=0.5;entryDx=0;entryDy=0;exitX=0.25;exitY=1;exitDx=0;exitDy=0;" parent="1" source="46-HXXY4aSdP1pMZ3lFQ-1" target="46-HXXY4aSdP1pMZ3lFQ-28" edge="1">
          <mxGeometry width="50" height="50" relative="1" as="geometry">
            <mxPoint x="1080" y="590" as="sourcePoint" />
            <mxPoint x="1130" y="540" as="targetPoint" />
            <Array as="points">
              <mxPoint x="1148" y="730" />
            </Array>
          </mxGeometry>
        </mxCell>
        <mxCell id="46-HXXY4aSdP1pMZ3lFQ-30" value="设置vitioqueue并申请中断" style="text;html=1;align=center;verticalAlign=middle;resizable=0;points=[];autosize=1;strokeColor=none;fillColor=none;" parent="1" vertex="1">
          <mxGeometry x="1740" y="600" width="150" height="20" as="geometry" />
        </mxCell>
      </root>
    </mxGraphModel>
  </diagram>
</mxfile>
